<svg width="400" height="400" viewBox="0 0 400 400" fill="white" xmlns="http://www.w3.org/2000/svg">
<rect x="55" y="55" width="190" height="290" rx="25" stroke="black" stroke-width="10"/>
<line x1="75" y1="295" x2="225" y2="295" stroke="black" stroke-width="10"/>
<line x1="75" y1="245" x2="225" y2="245" stroke="black" stroke-width="10"/>
<line x1="75" y1="195" x2="225" y2="195" stroke="black" stroke-width="10"/>
<line x1="75" y1="295" x2="225" y2="295" stroke="black" stroke-width="10"/>
<rect x="260.83" y="187.33" width="30" height="165" rx="15" transform="rotate(-30 260.83 187.33)" stroke="black" stroke-width="10"/>
<path d="M260.651 166.16C260.651 162.311 264.817 159.906 268.151 161.83L290.651 174.821C293.984 176.745 293.984 181.556 290.651 183.481L268.151 196.471C264.817 198.396 260.651 195.99 260.651 192.141L260.651 166.16Z" fill="black"/>
<line x1="325.886" y1="294.721" x2="345.115" y2="283.619" stroke="black" stroke-width="10"/>
<line x1="150" y1="120" x2="225" y2="120" stroke="black" stroke-width="10"/>
</svg>
